<?xml version="1.0" encoding="utf-8"?>
<!-- Generator: Adobe Illustrator 24.0.3, SVG Export Plug-In . SVG Version: 6.00 Build 0)  -->
<svg version="1.1" id="Layer_1" xmlns="http://www.w3.org/2000/svg" xmlns:xlink="http://www.w3.org/1999/xlink" x="0px" y="0px"
	 viewBox="0 0 100 100" style="enable-background:new 0 0 100 100;" xml:space="preserve">
<style type="text/css">
	.st0{fill:none;stroke:#4A90E2;stroke-width:5;stroke-miterlimit:10;}
	.st1{fill:#4A90E2;}
	.st2{fill:none;}
</style>
<title>ic_car_insurance_svg</title>
<path class="st0" d="M5.7,65.4H25v27.8H5.7"/>
<path class="st0" d="M33,67.8c-0.8,0.3-1.7,0.4-2.5,0.4h-5.3v22.5h2.4c0.7,0,1.3,0.1,1.9,0.3L40.7,94c0.4,0.1,0.8,0.2,1.2,0.2h13.4
	c0.8,0,1.7-0.2,2.4-0.7l34.3-21.5c2.5-1.7,3.2-5,1.5-7.5c-0.4-0.6-0.9-1.1-1.5-1.5c-1.5-0.9-3.3-0.9-4.8,0
	c-13.7,7.6-14.4,10.9-25.2,8l-19.4-5.7c-0.9-0.3-1.9-0.2-2.7,0.1L33,67.8z"/>
<polygon points="34.2,58.2 34.2,58.2 34.6,55.6 "/>
<path class="st1" d="M66.2,13.2l11.6,16.5c1.4,2.2,0.9,5.1-1.2,6.7l-9.1,6.4c-1,0.7-2.3,1-3.6,0.8c-1.3-0.2-2.4-1-3.1-2l-0.7-1
	L59,40.6l-0.3,2.6l0,0l0.3-2.6l-2.5-0.3l-1.3-0.2l-0.5-0.7l-2.1,1.3l0.5,0.9l0,0l-0.5-0.9L43,46.5c-1.3,0.8-1.7,2.4-0.9,3.7
	c0.8,1.2,2.4,1.6,3.6,0.9l8.4-5.1c0.3,0.1,0.7,0.1,1.1,0.1c0.6,0,1.2-0.2,1.7-0.4h0.3c3.4,3.8,9.1,4.5,13.3,1.5l9.1-6.4
	c4.4-3.3,5.5-9.5,2.4-14.1L70.5,10.1l0,0C67.3,5.6,61,4.5,56.4,7.7l-9.1,6.4c-4.1,2.9-5.5,8.5-3.1,13l-0.1,0.3
	c-0.4,0.4-0.8,0.9-1,1.5l0,0l0,0c-0.2,0.5-0.3,1-0.2,1.6l-6.2,4.4l-10.4,7.3c-0.9,0.6-1.4,1.5-1.6,2.5l-1.3,7.6
	c-0.4,2.1,1.1,4.2,3.2,4.5l7.6,1.3l0.5-2.8l-0.5,2.8c1,0.2,2.1-0.1,2.9-0.7l0,0l-1-1.4l-1.3-1.8l0,0l2.3,3.2l3.6-2.5l-3.1-4.3
	l-3.2,2.2l-5.6-1l1-5.7c3.3-2.3,6.6-4.7,9.9-7l7.8-5.5l2.2-1.5l-0.9-1.3l0.3-1.2l0.5-2.4L47,26.7l2.2-1.5c-1.5-2.2-1-5.1,1.1-6.7
	c0,0,0,0,0,0l9.1-6.4C61.6,10.5,64.6,11.1,66.2,13.2L66.2,13.2 M34.8,54.3L34.8,54.3L34,53.2L34.8,54.3z M46.8,30.4L46.8,30.4
	l0.1,0.6l0,0L46.8,30.4z M46.9,31l0.2,0.8L46.9,31L46.9,31z M46.7,30.4L46.7,30.4l-0.3-1.2l0,0L46.7,30.4z M56.2,42.9l-1.1-0.7l0,0
	L56.2,42.9z"/>
<polygon points="49.6,27.3 49.8,26.1 49.2,25.2 47,26.7 "/>
<circle class="st1" cx="64.9" cy="26.7" r="3.1"/>
<rect y="0" class="st2" width="100" height="100"/>
</svg>
