<?xml version="1.0" encoding="utf-8"?>
<!-- Generator: Adobe Illustrator 22.0.1, SVG Export Plug-In . SVG Version: 6.00 Build 0)  -->
<svg version="1.1" id="Layer_1" xmlns="http://www.w3.org/2000/svg" xmlns:xlink="http://www.w3.org/1999/xlink" x="0px" y="0px"
	 viewBox="0 0 100 100" style="enable-background:new 0 0 100 100;" xml:space="preserve">
<style type="text/css">
	.st0{fill:#4691E1;}
</style>
<title>Combined Shape</title>
<desc>Created with Sketch.</desc>
<g>
	<g id="Page-1">
		<g id="Side-Menu" transform="translate(-76.000000, -2365.000000)">
			<path id="Combined-Shape" class="st0" d="M151.6,2428.9V2415c0-1.1-0.9-2-2-2H93.9c-1.1,0-2,0.9-2,2v13.8h9.9
				c0.5,0,1,0.2,1.4,0.6l3.4,3.4h30.3l3.4-3.4c0.4-0.4,0.8-0.6,1.4-0.6L151.6,2428.9L151.6,2428.9z M147.6,2438.8v-5.9h-5.1
				l-2.8,2.8v3.2c0,1.1,0.9,2,2,2h3.9C146.7,2440.8,147.6,2439.9,147.6,2438.8z M101.8,2440.8c1.1,0,2-0.9,2-2v-3.2l-2.8-2.8h-5.1
				v5.9c0,1.1,0.9,2,2,2h3.9V2440.8z M107.1,2397.3l-5.9,11.8h41.3l-5.9-11.8H107.1z M149.6,2409.2c3.3,0,5.9,2.7,5.9,5.9v15.8
				c0,1.1-0.9,2-2,2h-2v5.9c0,3.3-2.7,5.9-5.9,5.9h-3.9c-3.3,0-5.9-2.7-5.9-5.9v-2h-28v2c0,3.3-2.7,5.9-5.9,5.9H98
				c-3.3,0-5.9-2.7-5.9-5.9v-5.9h-2c-1.1,0-2-0.9-2-2v-15.8c0-3.2,2.7-5.9,5.9-5.9h2.8l7.4-14.7c0.3-0.7,1-1.1,1.8-1.1h31.9
				c0.8,0,1.5,0.4,1.8,1.1l7.4,14.7H149.6z M99.6,2417.3c2.2,0,3.8,1.8,3.8,3.8c0,2.2-1.8,3.8-3.8,3.8c-2.2,0-3.8-1.8-3.8-3.8
				S97.5,2417.3,99.6,2417.3z M143.9,2417.3c2.2,0,3.8,1.8,3.8,3.8c0,2.2-1.8,3.8-3.8,3.8c-2.1,0-3.8-1.8-3.8-3.8
				S141.8,2417.3,143.9,2417.3z M133.8,2416.6c1.1,0,2,0.9,2,2.1s-0.9,2.1-2,2.1h-24.1c-1.1,0-2-0.9-2-2.1s0.9-2.1,2-2.1H133.8z
				 M130.3,2425c1.1,0,2,0.9,2,2.1c0,1.2-0.9,2.1-2,2.1h-16.4c-1.1,0-2-0.9-2-2.1c0-1.2,0.9-2.1,2-2.1H130.3z"/>
		</g>
	</g>
</g>
<g>
	<path class="st0" d="M75.7,30.9h-0.3h-3.1v4.4h-3.3V20h6.4c3.9,0,6.1,1.9,6.1,5.3c0,2.4-1,4-2.8,4.9l3.1,5H78L75.7,30.9z M75.4,28
		c1.8,0,2.9-0.9,2.9-2.6c0-1.7-1.1-2.5-2.9-2.5h-3.1V28H75.4z"/>
	<path class="st0" d="M92.5,24.7L91.3,27c-1.2-0.7-2.5-1.1-3.5-1.1c-0.8,0-1.3,0.3-1.3,0.9c0,1.8,6,0.9,6,5c0,2.4-2,3.7-4.6,3.7
		c-1.8,0-3.6-0.6-4.9-1.6l1.1-2.3c1.2,0.9,2.7,1.5,4,1.5c0.8,0,1.4-0.3,1.4-0.9c0-1.9-5.9-0.9-5.9-5c0-2.4,2-3.7,4.5-3.7
		C89.6,23.4,91.2,23.9,92.5,24.7z"/>
	<path class="st0" d="M97.3,33.7c0,1-0.7,1.7-1.6,1.7c-0.9,0-1.6-0.7-1.6-1.7c0-1,0.7-1.7,1.6-1.7C96.6,32,97.3,32.7,97.3,33.7z"/>
</g>
</svg>
